HIERARCHY
ROOT root
{
	OFFSET 0.000000 0.000000 0.000000
	CHANNELS 6 Xposition Yposition Zposition Zrotation Yrotation Xrotation
	JOINT lhip
	{
		OFFSET 0.058581 -0.082280 -0.017664
		CHANNELS 3 Zrotation Yrotation Xrotation
		JOINT lknee
		{
			OFFSET 0.043451 -0.386469 0.008037
			CHANNELS 3 Zrotation Yrotation Xrotation
			JOINT lankle
			{
				OFFSET -0.014790 -0.426874 -0.037428
				CHANNELS 3 Zrotation Yrotation Xrotation
				JOINT ltoe
				{
					OFFSET 0.041054 -0.060286 0.122042
					CHANNELS 3 Zrotation Yrotation Xrotation
					End Site
					{
						OFFSET 0.000000 0.000000 0.000000
					}
				}
			}
		}
	}
	JOINT rhip
	{
		OFFSET -0.060310 -0.090513 -0.013543
		CHANNELS 3 Zrotation Yrotation Xrotation
		JOINT rknee
		{
			OFFSET -0.043257 -0.383688 -0.004843
			CHANNELS 3 Zrotation Yrotation Xrotation
			JOINT rankle
			{
				OFFSET 0.019056 -0.420046 -0.034562
				CHANNELS 3 Zrotation Yrotation Xrotation
				JOINT rtoe
				{
					OFFSET -0.034840 -0.062106 0.130323
					CHANNELS 3 Zrotation Yrotation Xrotation
					End Site
					{
						OFFSET 0.000000 0.000000 0.000000
					}
				}
			}
		}
	}
	JOINT lowerback
	{
		OFFSET 0.004439 0.124404 -0.038385
		CHANNELS 3 Zrotation Yrotation Xrotation
		JOINT upperback
		{
			OFFSET 0.004488 0.137956 0.026820
			CHANNELS 3 Zrotation Yrotation Xrotation
			JOINT chest
			{
				OFFSET -0.002265 0.056032 0.002855
				CHANNELS 3 Zrotation Yrotation Xrotation
				JOINT lowerneck
				{
					OFFSET -0.013390 0.211636 -0.033468
					CHANNELS 3 Zrotation Yrotation Xrotation
					JOINT upperneck
					{
						OFFSET 0.010113 0.088937 0.050410
						CHANNELS 3 Zrotation Yrotation Xrotation
						End Site
						{
							OFFSET 0.000000 0.000000 0.000000
						}
					}
				}
				JOINT lclavicle
				{
					OFFSET 0.071702 0.114000 -0.018898
					CHANNELS 3 Zrotation Yrotation Xrotation
					JOINT lshoulder
					{
						OFFSET 0.122921 0.045205 -0.019046
						CHANNELS 3 Zrotation Yrotation Xrotation
						JOINT lelbow
						{
							OFFSET 0.255332 -0.015649 -0.022946
							CHANNELS 3 Zrotation Yrotation Xrotation
							JOINT lwrist
							{
								OFFSET 0.265709 0.012698 -0.007375
								CHANNELS 3 Zrotation Yrotation Xrotation
								End Site
								{
									OFFSET 0.000000 0.000000 0.000000
								}
							}
						}
					}
				}
				JOINT rclavicle
				{
					OFFSET -0.082954 0.112472 -0.023707
					CHANNELS 3 Zrotation Yrotation Xrotation
					JOINT rshoulder
					{
						OFFSET -0.113228 0.046853 -0.008472
						CHANNELS 3 Zrotation Yrotation Xrotation
						JOINT relbow
						{
							OFFSET -0.260127 -0.014369 -0.031269
							CHANNELS 3 Zrotation Yrotation Xrotation
							JOINT rwrist
							{
								OFFSET -0.269108 0.006794 -0.006027
								CHANNELS 3 Zrotation Yrotation Xrotation
								End Site
								{
									OFFSET 0.000000 0.000000 0.000000
								}
							}
						}
					}
				}
			}
		}
	}
}
MOTION
Frames: 16
Frame Time: 0.033333
-1.117441 0.265271 1.006131 95.436877 0.089537 83.994111 -5.034667 2.039075 13.376250 -3.734867 -17.008855 3.316265 7.446329 9.004755 -12.778822 0.000000 -0.000000 0.000000 -4.970989 -1.377441 -27.472756 -0.474174 -10.903331 26.531962 8.317301 -8.682606 -8.668574 0.000000 -0.000000 0.000000 -2.389228 -2.571235 15.727762 0.385819 0.329527 -2.308816 0.165322 -2.078964 3.765073 2.205444 7.031629 -3.936864 -3.187603 -0.861605 8.528849 -22.759504 3.330792 0.230012 -57.045413 -12.949384 9.467269 10.904511 -31.671620 1.087444 -3.236582 -2.951816 -6.513153 31.114302 -0.540359 -0.298684 56.020433 8.934856 10.597759 -22.171225 19.648965 -21.220590 5.557237 2.304712 -9.421602 
-1.095057 0.264876 1.003365 95.491408 -0.055496 84.732678 -4.902482 2.227644 14.098942 -3.759303 -17.251352 3.386476 7.272586 9.048161 -13.598619 0.000000 -0.000000 0.000000 -4.605657 -1.878928 -28.243618 -0.285421 -11.918326 18.710737 9.553024 -8.927663 -6.459822 0.000000 -0.000000 0.000000 -2.277667 -2.620187 15.442611 0.264995 0.325496 -2.725726 0.483403 -2.363495 3.784155 2.086114 6.543150 -4.229082 -2.927950 -1.013070 8.797573 -22.849638 3.454544 0.381892 -57.294929 -13.355850 9.664915 10.390732 -31.510779 1.604140 -3.065665 -3.564918 -5.910001 30.987888 -0.855075 -0.608228 56.254739 9.021318 10.869867 -21.951265 19.952111 -20.762301 5.343704 2.669179 -9.090522 
-1.072614 0.264451 1.000300 95.764515 -0.339311 85.475612 -4.876223 2.577064 14.702827 -3.722979 -17.332133 3.728280 7.130918 8.623953 -14.274614 0.000000 -0.000000 0.000000 -4.304717 -2.598030 -28.792700 -0.166996 -13.198305 12.252505 11.361780 -8.936129 -3.938435 0.000000 -0.000000 0.000000 -2.265160 -2.561006 15.143754 0.127288 0.231202 -2.945627 0.756010 -2.776527 3.741940 1.970012 6.357887 -4.093045 -2.496899 -0.765008 8.793575 -22.866441 3.221288 0.707585 -57.592846 -13.724279 9.812010 10.120300 -31.224136 1.758378 -3.105266 -3.639873 -5.247111 30.918874 -1.043665 -0.683576 56.454161 9.276609 10.886592 -21.708067 20.023701 -20.832619 5.219191 3.115667 -9.007784 
-1.049084 0.264295 0.996984 96.217211 -0.721897 85.902317 -4.876588 2.847190 15.743032 -3.834853 -17.796365 3.921379 6.825516 8.543391 -14.802339 0.000000 -0.000000 0.000000 -4.570133 -2.550967 -29.494355 -0.032129 -14.201051 10.575621 12.699567 -8.796437 -4.087971 0.000000 -0.000000 0.000000 -2.250960 -3.259310 15.423451 -0.000120 -0.006462 -3.261830 0.708400 -2.767807 3.632693 2.240931 6.143410 -4.564096 -2.479637 -1.023059 9.283733 -22.916077 3.437683 0.521894 -57.693426 -13.639522 9.964287 9.613561 -31.020749 2.170667 -2.992686 -3.772339 -4.334751 31.049881 -1.096654 -0.721034 56.666361 9.207501 10.952201 -21.751457 20.379033 -20.796437 5.118937 3.211080 -8.458982 
-1.024845 0.263787 0.994402 96.760351 -0.658585 86.118670 -4.369292 2.926525 17.058727 -3.922065 -18.758345 4.386281 6.782475 8.846235 -15.212918 0.000000 -0.000000 0.000000 -4.654941 -2.056655 -30.355049 0.022498 -14.522718 12.875565 12.384415 -9.202572 -3.137895 0.000000 -0.000000 0.000000 -1.917723 -4.127033 15.792810 0.176434 0.005711 -3.191558 0.641353 -2.995396 3.597864 2.222968 6.482199 -4.935537 -2.579381 -0.621126 9.114974 -23.273345 3.394497 0.539679 -57.691314 -13.491017 9.993498 9.584922 -30.908567 2.379252 -3.089068 -3.916419 -4.319854 31.149883 -0.942111 -0.873846 56.576448 9.152584 11.090116 -21.711423 20.585383 -20.709184 5.010596 3.216266 -8.443998 
-0.999100 0.262656 0.993184 97.746833 -0.586554 86.543552 -3.879573 2.663435 17.885491 -4.101417 -19.811862 5.404735 6.599472 8.694143 -14.538570 0.000000 -0.000000 0.000000 -4.638221 -1.321658 -30.533063 0.066314 -13.940526 15.462197 11.164963 -9.387880 -3.317905 0.000000 -0.000000 0.000000 -1.646721 -4.774512 15.520274 0.652482 -0.256589 -2.679162 0.681961 -3.440363 3.451370 2.199554 6.299611 -5.223225 -2.871935 -0.685399 8.808129 -23.803724 3.197344 0.737530 -57.733293 -13.302198 10.149759 9.724451 -30.419495 2.582974 -3.263031 -3.857061 -4.556264 31.258953 -0.775776 -0.952692 56.263863 9.149331 11.078924 -21.681394 20.266224 -20.573912 5.032513 3.181689 -8.864107 
-0.970421 0.261088 0.991432 98.950967 -0.678086 87.198446 -3.352112 2.436772 18.244128 -4.421923 -20.390183 6.887897 6.008912 8.145750 -13.716153 0.000000 -0.000000 0.000000 -4.385870 -0.462085 -29.350395 0.230369 -12.218866 16.957551 10.214495 -8.825776 -3.503679 0.000000 -0.000000 0.000000 -1.669540 -4.653455 14.463572 1.303666 -0.535283 -1.750482 1.047335 -4.350425 3.215168 2.184867 6.125937 -4.918136 -3.038434 -0.497831 8.448425 -23.873594 2.823237 1.121804 -58.567618 -13.194177 10.283145 9.766153 -29.315194 3.032082 -3.660318 -3.322639 -4.654605 30.987683 -1.337116 -1.294515 56.101497 8.728960 10.856979 -21.461354 20.371327 -20.153653 5.425525 2.886038 -9.173884 
-0.939886 0.259145 0.990745 99.782970 -0.911560 88.399461 -3.338562 1.891613 17.840896 -4.431264 -20.626602 8.949764 5.035090 7.715489 -12.692744 0.000000 -0.000000 0.000000 -3.505649 -0.062151 -27.947754 -0.057669 -11.210992 16.532478 9.012483 -8.025428 -1.398451 0.000000 -0.000000 0.000000 -1.388076 -5.193918 13.470310 1.508016 -1.401368 -2.182784 0.948856 -4.317524 3.051968 2.193501 6.145912 -4.646408 -2.874470 0.082324 8.455642 -23.903697 3.637741 1.050936 -58.822116 -12.288224 10.450758 9.168661 -28.506712 4.253310 -4.019942 -3.526937 -4.268401 31.312683 -2.157995 -1.123812 55.932552 8.276936 10.862601 -21.281928 20.141084 -19.710874 5.634395 3.066662 -9.563957 
-0.908189 0.257623 0.993437 99.060347 -0.565087 89.455372 -3.124785 1.152474 17.182141 -4.666206 -19.853328 11.548306 4.219548 7.472091 -9.286945 0.000000 -0.000000 0.000000 -2.773536 0.466233 -26.420107 0.477064 -11.108144 13.590007 8.404438 -8.893950 3.764170 0.000000 -0.000000 0.000000 -0.479827 -5.215747 12.056033 1.826549 -1.258545 -1.613949 1.005912 -4.116010 2.772103 2.006148 5.065116 -4.235098 -2.489731 0.493798 8.498343 -24.867122 4.078858 1.294636 -58.729655 -11.769889 10.480973 8.879866 -27.674297 5.002038 -4.848928 -3.475077 -3.736889 31.199325 -2.727201 -0.708294 55.484200 7.831725 10.825694 -21.057568 19.710006 -19.739396 5.623384 2.942983 -10.078064 
-0.875400 0.255465 0.998560 97.346237 0.243807 89.746413 -2.750371 1.021758 16.725717 -4.981595 -18.583960 15.082412 2.568313 7.218324 -4.831764 0.000000 -0.000000 0.000000 -1.636413 1.631695 -25.325283 1.189678 -10.632370 15.022151 6.157694 -7.995705 2.720502 0.000000 -0.000000 0.000000 0.688089 -5.457000 11.738845 2.213363 -0.629699 -1.227941 0.930409 -3.558318 2.616761 1.707920 5.292486 -4.317141 -2.555905 1.187331 8.063752 -25.618263 4.774069 1.095763 -58.933277 -10.717430 10.545068 9.009445 -27.113654 5.354385 -5.351649 -3.080308 -3.407906 31.109392 -2.955883 -0.488691 55.080378 7.618425 10.607560 -20.709244 18.947196 -19.192507 5.787784 2.732621 -10.108802 
-0.841275 0.252611 1.005333 95.322066 1.132554 89.509216 -2.256717 0.859489 15.686509 -5.765901 -17.071710 20.221289 -0.563917 6.383493 0.885418 0.000000 -0.000000 0.000000 -0.083125 2.852179 -22.984209 1.804236 -9.575683 15.478838 4.786347 -6.793112 1.145213 0.000000 -0.000000 0.000000 1.724513 -5.339825 11.494609 2.626214 -0.221646 -0.351742 0.973816 -2.864442 2.362134 1.396809 5.573000 -3.905589 -2.519665 1.876126 7.501109 -25.969085 5.090843 1.039949 -59.315831 -9.648837 10.647456 9.168613 -26.530572 5.350196 -5.975526 -2.882759 -3.515556 30.772707 -2.812542 0.071637 54.773904 7.309997 10.220492 -20.241629 17.941936 -18.752358 6.064078 2.532598 -10.556082 
-0.807996 0.249265 1.010607 93.669955 1.227456 89.434224 -1.692469 0.639629 12.779400 -7.588415 -14.086077 27.355572 -4.056689 5.089222 7.413272 0.000000 -0.000000 0.000000 1.238414 2.614410 -20.805925 1.844950 -8.415261 15.697680 3.256858 -5.361456 -0.023446 0.000000 -0.000000 0.000000 1.709354 -4.490355 10.999565 3.014093 -0.463315 0.341922 1.122696 -2.669696 2.374961 1.090419 6.074796 -3.248918 -2.030918 2.704258 6.907139 -25.553502 5.504143 1.381877 -59.619119 -8.815610 10.677752 8.742945 -26.810313 6.075827 -6.487061 -2.851428 -3.928151 30.381694 -2.975642 0.635496 54.821602 7.152191 9.976155 -19.637205 17.560383 -17.806095 6.534565 2.075849 -10.959876 
-0.776539 0.245997 1.014262 92.554906 1.095752 89.305152 -0.947472 0.234625 8.877882 -9.734905 -11.221283 35.564323 -5.360248 4.580933 11.661731 0.000000 -0.000000 0.000000 1.900141 2.223228 -18.641000 2.209894 -7.350443 15.912218 1.858673 -4.611949 -1.651553 0.000000 -0.000000 0.000000 1.481530 -3.531917 10.954867 3.347669 -0.771824 0.362440 1.159648 -2.624350 2.375179 1.390631 5.790128 -3.052876 -1.351231 2.756043 7.004251 -25.086988 5.670155 1.984040 -59.266424 -8.187204 10.788101 7.843414 -27.904420 7.868596 -7.140875 -2.604389 -4.276664 30.094069 -3.337143 0.778911 55.037910 6.692154 9.675265 -19.125712 16.865996 -16.441522 7.109723 1.981144 -11.065753 
-0.746612 0.243934 1.017234 91.726296 0.910055 88.632104 -0.276349 -0.299965 5.302849 -10.781441 -8.127064 42.872931 -4.782065 4.610701 14.423209 0.000000 -0.000000 0.000000 2.052357 2.063866 -15.723064 2.733274 -6.379271 15.861185 0.993788 -4.366405 -3.250942 0.000000 -0.000000 0.000000 1.263512 -2.787425 11.334352 3.488929 -0.993195 0.829821 1.047569 -2.298765 2.549610 1.821751 5.594824 -3.205447 -0.747966 2.779218 6.899020 -25.483326 5.554181 1.948530 -57.805173 -8.025539 10.701138 6.988053 -29.435635 8.831046 -7.450128 -2.485957 -3.999603 30.380074 -3.342912 1.069288 54.637002 6.084833 9.373026 -18.650896 16.785716 -15.961309 7.212799 1.340333 -10.896738 
-0.717624 0.241192 1.019798 90.549378 0.717108 88.035892 0.636052 -0.301823 1.805916 -11.598839 -5.402581 48.595239 -3.687933 4.435482 11.526664 0.000000 -0.000000 0.000000 2.432595 1.302329 -12.796843 2.914752 -5.143923 15.392063 0.802411 -3.744734 -4.746472 0.000000 -0.000000 0.000000 0.960845 -1.886592 12.037520 3.490655 -1.065273 0.678674 1.042200 -2.001593 2.756057 2.246881 5.262290 -3.724442 -0.477749 2.601026 7.216433 -25.921751 5.754538 1.624002 -56.643306 -7.902602 10.145031 6.608241 -30.611514 9.205030 -7.010835 -2.581052 -4.159305 30.623170 -3.584472 0.945179 54.430905 5.548973 9.156517 -17.966606 16.298980 -14.983072 7.029217 1.139590 -10.499841 
-0.689605 0.238551 1.021303 89.240518 0.201787 87.413540 1.431111 -0.253651 -1.525349 -11.602200 -2.457437 52.058410 -1.842359 4.366165 7.649860 0.000000 -0.000000 0.000000 2.333984 0.227217 -10.164000 3.097802 -3.834629 15.311261 0.905901 -3.060409 -5.879386 0.000000 -0.000000 0.000000 0.255695 -0.528563 12.343474 3.335812 -1.000585 0.834570 1.111967 -1.803274 3.154086 1.944730 5.961149 -3.201732 -0.298384 3.276561 7.386298 -25.804095 5.658583 1.604267 -56.494098 -8.480476 9.352030 7.571722 -30.990364 7.846276 -6.395611 -2.574422 -5.282207 30.691440 -3.475022 1.442136 54.731697 5.579980 8.892752 -17.527797 15.004530 -14.856814 7.142754 0.477824 -10.895451 
